<svg width="138" height="138" viewBox="0 0 138 138" fill="none" xmlns="http://www.w3.org/2000/svg">
<rect x="29" y="29" width="80" height="80" rx="2" stroke="black" stroke-width="10"/>
<rect y="61" width="138" height="16" fill="#FFD133"/>
<path d="M10 113C10 121.284 16.7157 128 25 128H44C46.7614 128 49 130.239 49 133V133C49 135.761 46.7614 138 44 138H25C11.1929 138 0 126.807 0 113V94C0 91.2386 2.23858 89 5 89V89C7.76142 89 10 91.2386 10 94V113ZM138 113C138 126.807 126.807 138 113 138H94C91.2386 138 89 135.761 89 133V133C89 130.239 91.2386 128 94 128H113C121.284 128 128 121.284 128 113V94C128 91.2386 130.239 89 133 89V89C135.761 89 138 91.2386 138 94V113ZM49 5C49 7.76142 46.7614 10 44 10H25C16.7157 10 10 16.7157 10 25V44C10 46.7614 7.76142 49 5 49V49C2.23858 49 0 46.7614 0 44V25C0 11.1929 11.1929 0 25 0H44C46.7614 0 49 2.23858 49 5V5ZM113 0C126.807 0 138 11.1929 138 25V44C138 46.7614 135.761 49 133 49V49C130.239 49 128 46.7614 128 44V25C128 16.7157 121.284 10 113 10H94C91.2386 10 89 7.76142 89 5V5C89 2.23858 91.2386 0 94 0H113Z" fill="black"/>
</svg>
